<?xml version="1.0" encoding="utf-8" ?>
<svg xmlns="http://www.w3.org/2000/svg" xmlns:xlink="http://www.w3.org/1999/xlink" width="24" height="24">
	<path fill="#7C7E92" transform="translate(-2.67029e-05 0)" d="M11.999971 0.37504917C5.579668 0.37504917 0.37499911 5.5797181 0.37499911 12.000021C0.37499911 18.420324 5.579668 23.624994 11.999971 23.624994C18.420275 23.624994 23.624943 18.420324 23.624943 12.000021C23.624943 5.5797181 18.420275 0.37504917 11.999971 0.37504917ZM11.999971 22.124998C6.4376068 22.124998 1.8749955 17.622444 1.8749955 12.000021C1.8749955 6.4377027 6.3775482 1.8750455 11.999971 1.8750455C17.562336 1.8750455 22.124947 6.3775983 22.124947 12.000021C22.124947 17.56234 17.622395 22.124998 11.999971 22.124998ZM18.638857 9.2362337C18.859406 9.0174694 18.86087 8.6613302 18.642061 8.4407797L18.245913 8.0413818C18.027147 7.8208323 17.671009 7.819459 17.450459 8.0382233L9.7891617 15.638043L6.5559382 12.378683C6.3371735 12.158133 5.9809885 12.156713 5.7604384 12.375479L5.3610864 12.771626C5.1405363 12.990391 5.1391172 13.34653 5.357882 13.56708L9.3834009 17.625145C9.6021652 17.845695 9.9583502 17.847115 10.178901 17.628349L18.638857 9.2362337Z"/>
</svg>
