<?xml version="1.0" encoding="utf-8" ?>
<svg xmlns="http://www.w3.org/2000/svg" xmlns:xlink="http://www.w3.org/1999/xlink" width="24" height="24">
	<path fill="#7C7E92" transform="translate(-2.67029e-05 0)" d="M11.999971 1.8750455C17.560322 1.8750455 22.124947 6.3785596 22.124947 12.000021C22.124947 17.591774 17.596348 22.124998 11.999971 22.124998C6.4104156 22.124998 1.8749955 17.598686 1.8749955 12.000021C1.8749955 6.4123883 6.403183 1.8750455 11.999971 1.8750455ZM11.999971 0.37504917C5.5801258 0.37504917 0.37499911 5.5820527 0.37499911 12.000021C0.37499911 18.421743 5.5801258 23.624994 11.999971 23.624994C18.419817 23.624994 23.624943 18.421743 23.624943 12.000021C23.624943 5.5820527 18.419817 0.37504917 11.999971 0.37504917ZM11.461368 6.0000358C11.141529 6.0000358 10.886098 6.2663622 10.899327 6.5859718L11.227451 14.460953C11.24004 14.762207 11.487964 15.000014 11.789493 15.000014L12.210404 15.000014C12.511979 15.000014 12.759857 14.762253 12.7724 14.460953L13.100524 6.5859718C13.113845 6.2663622 12.858322 6.0000358 12.538529 6.0000358L11.461368 6.0000358ZM11.999971 15.937512C11.275105 15.937512 10.687474 16.525143 10.687474 17.25001C10.687474 17.974876 11.275105 18.562506 11.999971 18.562506C12.724838 18.562506 13.312469 17.974876 13.312469 17.25001C13.312469 16.525143 12.724838 15.937512 11.999971 15.937512Z"/>
</svg>
