<?xml version="1.0" standalone="no"?>
<!DOCTYPE svg PUBLIC "-//W3C//DTD SVG 20010904//EN" "http://www.w3.org/TR/2001/REC-SVG-20010904/DTD/svg10.dtd">
<svg xmlns="http://www.w3.org/2000/svg" version="1.0" width="1024.000000pt" height="1024.000000pt" viewBox="0 0 1024.000000 1024.000000" preserveAspectRatio="xMidYMid meet">
<metadata>
Created by potrace 1.16, written by Peter Selinger 2001-2019
<meta name="Producer" content="Online-Convert"/></metadata>
<g transform="translate(0.000000,1024.000000) scale(0.100000,-0.100000)" fill="#000000" stroke="none">
<path d="M7240 9266 c-201 -68 -489 -167 -640 -219 -151 -52 -466 -160 -700 -241 -234 -80 -618 -212 -853 -294 l-428 -149 70 -57 c151 -124 328 -328 432 -498 102 -168 206 -425 240 -595 7 -35 15 -63 19 -63 3 1 70 104 149 230 l144 230 228 0 c126 0 229 -2 229 -5 0 -3 -73 -120 -162 -260 l-163 -255 -175 -1 c-228 -2 -234 -3 -238 -14 -2 -6 0 -43 4 -83 l6 -72 1348 2 c1343 3 1349 3 1376 24 15 11 37 38 48 60 20 37 21 52 18 344 -3 326 -4 331 -56 365 -21 14 -179 15 -1424 15 l-1401 0 -6 21 c-4 12 -3 25 2 30 4 4 159 60 343 123 184 63 585 201 890 306 305 105 726 250 935 322 209 71 395 139 413 150 39 24 62 65 62 112 0 32 -147 481 -176 538 -8 15 -28 34 -44 43 -61 31 -107 21 -490 -109z m288 -234 c81 -76 176 -165 210 -198 l64 -59 -210 -69 -210 -70 -157 150 c-87 82 -182 171 -213 199 l-55 49 199 67 c110 37 205 68 212 68 7 1 79 -61 160 -137z m-776 -351 c116 -107 207 -196 202 -198 -5 -2 -99 -34 -209 -72 l-200 -69 -125 121 c-69 67 -165 158 -213 202 l-88 80 203 67 c112 36 206 65 210 65 5 -1 103 -90 220 -196z m-912 -236 c83 -77 179 -165 212 -195 l60 -55 -209 -71 -209 -72 -218 201 -217 202 203 66 c112 37 208 66 215 66 6 -1 79 -65 163 -142z m1218 -843 c-1 -5 -75 -121 -163 -259 l-160 -250 -235 -5 c-129 -3 -236 -5 -237 -4 -3 2 310 490 327 511 10 13 50 15 242 15 126 0 228 -4 226 -8z m913 -24 c-12 -18 -85 -135 -164 -260 l-142 -227 -232 0 -232 -1 126 198 c69 108 143 225 165 260 l40 62 230 0 230 0 -21 -32z"/>
<path d="M3206 8524 c-370 -57 -694 -227 -957 -501 -137 -144 -224 -267 -309 -438 -108 -219 -156 -389 -180 -640 -31 -315 51 -714 203 -995 247 -459 640 -752 1210 -904 281 -75 626 -127 977 -146 226 -13 389 -8 764 21 281 21 452 24 594 8 266 -29 524 -118 761 -263 51 -31 95 -55 97 -53 2 2 0 17 -5 33 -5 16 -30 104 -55 195 l-46 166 26 89 c14 49 43 126 64 172 l39 83 -27 10 c-197 75 -481 88 -738 35 -67 -14 -337 -79 -600 -145 -579 -144 -670 -161 -909 -167 l-180 -5 109 40 c395 144 672 362 890 699 142 219 244 503 281 784 10 77 7 328 -5 419 -25 191 -77 354 -171 544 -91 185 -177 303 -334 460 -286 287 -591 442 -978 499 -129 20 -397 20 -521 0z m477 -437 c91 -45 161 -117 209 -215 32 -64 33 -72 33 -182 0 -104 -3 -121 -27 -172 -37 -80 -73 -125 -142 -175 -228 -168 -578 -65 -671 197 -26 71 -30 184 -11 260 31 121 119 231 228 286 70 35 112 43 214 41 83 -3 99 -6 167 -40z m-982 -753 c151 -44 266 -163 305 -315 43 -168 -33 -366 -177 -461 -90 -59 -140 -73 -259 -73 -94 0 -111 3 -168 29 -75 35 -173 133 -208 211 -54 117 -53 279 2 393 83 171 316 271 505 216z m1842 -13 c94 -33 176 -99 229 -186 97 -158 79 -378 -42 -509 -189 -205 -499 -192 -667 29 -64 84 -86 152 -87 266 -1 93 0 98 42 182 58 117 136 185 257 223 63 20 202 17 268 -5z m-972 -371 c33 -18 69 -76 75 -122 8 -60 -22 -130 -68 -158 -40 -24 -126 -27 -168 -5 -66 34 -95 122 -66 199 20 52 41 73 93 92 39 14 100 11 134 -6z m-461 -600 c157 -30 291 -151 335 -305 23 -77 16 -208 -13 -285 -43 -110 -130 -198 -239 -241 -48 -19 -77 -23 -168 -24 -103 0 -114 2 -175 31 -170 81 -259 236 -248 431 7 116 37 184 116 262 62 63 131 103 215 126 64 17 108 18 177 5z m1052 -20 c116 -36 216 -121 266 -228 25 -52 27 -68 27 -177 0 -114 -2 -124 -31 -185 -41 -86 -108 -159 -186 -200 -110 -59 -275 -54 -401 13 -70 37 -146 117 -184 195 -26 53 -28 65 -28 177 1 107 3 126 26 175 91 194 309 292 511 230z"/>
<path d="M5396 6690 c-16 -230 -73 -483 -154 -679 -81 -196 -186 -358 -357 -554 l-77 -89 68 7 c119 11 231 34 489 100 354 91 403 99 585 99 121 0 180 -5 269 -23 104 -20 337 -90 370 -110 10 -7 4 -23 -29 -77 -81 -133 -182 -366 -166 -382 4 -4 339 -7 744 -7 690 0 740 1 784 18 56 22 110 79 126 136 9 28 12 263 12 850 l0 811 -1329 0 -1328 0 -7 -100z"/>
<path d="M3615 4325 c-214 -48 -330 -152 -392 -350 -17 -56 -18 -109 -18 -765 l0 -705 27 -74 c63 -174 186 -285 360 -326 83 -19 257 -19 333 0 188 49 306 168 355 361 19 73 20 113 20 754 0 642 -1 681 -20 754 -48 190 -176 310 -372 350 -92 19 -210 19 -293 1z m248 -344 c21 -13 45 -41 59 -69 l23 -47 0 -660 0 -660 -27 -47 c-66 -111 -254 -120 -325 -16 -42 62 -44 103 -41 758 l3 625 25 50 c35 71 90 98 182 92 45 -3 78 -11 101 -26z"/>
<path d="M8010 4325 c-196 -54 -326 -188 -366 -374 -27 -129 -13 -320 31 -425 46 -110 109 -183 370 -430 286 -271 309 -304 310 -456 0 -107 -18 -155 -75 -203 -58 -49 -183 -50 -247 -1 -58 44 -73 90 -73 232 l0 123 -172 -3 -173 -3 3 -145 c1 -87 8 -168 17 -204 46 -178 167 -292 352 -331 88 -19 241 -19 321 0 193 46 342 195 381 383 16 79 14 277 -4 347 -41 158 -100 234 -370 480 -230 210 -262 244 -303 332 -23 50 -27 71 -27 148 0 78 3 96 25 134 32 57 67 82 123 88 64 8 111 -3 148 -34 54 -46 69 -93 69 -220 l0 -112 108 6 c59 3 133 8 166 12 l59 6 -2 115 c-5 297 -99 454 -314 522 -85 27 -280 34 -357 13z"/>
<path d="M1450 3213 l0 -1093 165 0 165 0 2 729 3 729 148 -581 c81 -319 148 -581 150 -582 1 -1 47 -5 103 -8 l101 -6 118 452 c65 249 135 517 156 597 l38 145 0 -737 1 -738 160 0 160 0 0 1093 0 1092 -212 -2 c-203 -2 -213 -3 -220 -23 -6 -17 -203 -783 -273 -1065 -13 -49 -24 -88 -24 -85 -1 3 -68 267 -149 588 l-148 583 -222 2 -222 2 0 -1092z"/>
<path d="M4599 4302 l-166 -2 13 -73 c18 -101 284 -1551 339 -1844 25 -134 45 -247 45 -253 0 -6 80 -10 220 -10 121 0 220 2 220 5 0 9 269 1545 376 2150 l5 30 -172 -2 c-94 -1 -173 -3 -175 -5 -1 -2 -30 -190 -64 -418 -146 -991 -180 -1225 -183 -1233 -1 -4 -64 365 -140 820 -76 455 -141 830 -145 833 -4 3 -82 4 -173 2z"/>
<path d="M5860 3213 l0 -1093 180 0 180 0 0 1093 0 1092 -180 0 -180 0 0 -1092z"/>
<path d="M6514 4301 c-2 -2 -4 -494 -4 -1093 l0 -1088 465 0 465 0 0 165 0 165 -285 0 -285 0 0 303 0 302 232 0 233 0 3 163 2 162 -235 0 -235 0 0 295 0 295 280 0 280 0 0 168 0 167 -456 0 c-251 0 -458 -2 -460 -4z"/>
</g>
</svg>
