<?xml version="1.0" encoding="UTF-8"?>
<svg width="33px" height="33px" viewBox="0 0 33 33" version="1.1" xmlns="http://www.w3.org/2000/svg" xmlns:xlink="http://www.w3.org/1999/xlink">
    <title>776413A9-B1FA-4988-9C86-221649544850</title>
    <defs>
        <filter x="-3.4%" y="-7.3%" width="106.8%" height="117.7%" filterUnits="objectBoundingBox" id="filter-1">
            <feOffset dx="0" dy="2" in="SourceAlpha" result="shadowOffsetOuter1"></feOffset>
            <feGaussianBlur stdDeviation="3.5" in="shadowOffsetOuter1" result="shadowBlurOuter1"></feGaussianBlur>
            <feColorMatrix values="0 0 0 0 0.768791287   0 0 0 0 0.785524305   0 0 0 0 0.810623832  0 0 0 1 0" type="matrix" in="shadowBlurOuter1" result="shadowMatrixOuter1"></feColorMatrix>
            <feMerge>
                <feMergeNode in="shadowMatrixOuter1"></feMergeNode>
                <feMergeNode in="SourceGraphic"></feMergeNode>
            </feMerge>
        </filter>
    </defs>
    <g id="Page-1" stroke="none" stroke-width="1" fill="none" fill-rule="evenodd">
        <g id="(Mob)-Transactions" transform="translate(-23, -144)" fill="#353640" fill-rule="nonzero">
            <g id="White-BG-Copy" filter="url(#filter-1)" transform="translate(12, 135.2)">
                <g id="icon-TxnStatus-info" transform="translate(16, 11)">
                    <g id="info-circle" transform="translate(2.7812, 3.5313)">
                        <path d="M8.71872921,1.12499732 C12.8889921,1.12499732 16.3124611,4.50263285 16.3124611,8.71872921 C16.3124611,12.912544 12.9160115,16.3124611 8.71872921,16.3124611 C4.52656239,16.3124611 1.12499732,12.9177281 1.12499732,8.71872921 C1.12499732,4.52800434 4.5211379,1.12499732 8.71872921,1.12499732 Z M8.71872921,0 C3.90384506,0 0,3.90525268 0,8.71872921 C0,13.535021 3.90384506,17.4374584 8.71872921,17.4374584 C13.5336134,17.4374584 17.4374584,13.535021 17.4374584,8.71872921 C17.4374584,3.90525268 13.5336134,0 8.71872921,0 Z M7.45310723,12.0937212 C7.22012897,12.0937212 7.03123324,12.2826169 7.03123324,12.5155952 L7.03123324,12.7968445 C7.03123324,13.0298228 7.22012897,13.2187185 7.45310723,13.2187185 L9.9843512,13.2187185 C10.2173295,13.2187185 10.4062252,13.0298228 10.4062252,12.7968445 L10.4062252,12.5155952 C10.4062252,12.2826169 10.2173295,12.0937212 9.9843512,12.0937212 L9.5624772,12.0937212 L9.5624772,7.1718579 C9.5624772,6.93887964 9.37358147,6.74998391 9.14060321,6.74998391 L7.45310723,6.74998391 C7.22012897,6.74998391 7.03123324,6.93887964 7.03123324,7.1718579 L7.03123324,7.45310723 C7.03123324,7.6860855 7.22012897,7.87498122 7.45310723,7.87498122 L7.87498122,7.87498122 L7.87498122,12.0937212 L7.45310723,12.0937212 Z M8.71872921,3.65624128 C8.09741951,3.65624128 7.5937319,4.15992889 7.5937319,4.7812386 C7.5937319,5.40254831 8.09741951,5.90623592 8.71872921,5.90623592 C9.34003892,5.90623592 9.84372653,5.40254831 9.84372653,4.7812386 C9.84372653,4.15992889 9.34003892,3.65624128 8.71872921,3.65624128 Z" id="Shape"></path>
                    </g>
                </g>
            </g>
        </g>
    </g>
</svg>